<mxfile host="app.diagrams.net" agent="Mozilla/5.0 (X11; Linux x86_64; rv:136.0) Gecko/20100101 Firefox/136.0" version="26.1.0">
  <diagram name="Page-1" id="WA_RqFTsVogBVC4ZlaYY">
    <mxGraphModel dx="309" dy="311" grid="1" gridSize="10" guides="1" tooltips="1" connect="1" arrows="1" fold="1" page="1" pageScale="1" pageWidth="850" pageHeight="1100" math="0" shadow="0">
      <root>
        <mxCell id="0" />
        <mxCell id="1" parent="0" />
        <mxCell id="-5HwlrBw0nv6hRS2BXrq-1" value="" style="ellipse;html=1;shape=startState;fillColor=#000000;strokeColor=#ff0000;" vertex="1" parent="1">
          <mxGeometry x="300" y="150" width="30" height="30" as="geometry" />
        </mxCell>
        <mxCell id="-5HwlrBw0nv6hRS2BXrq-2" value="" style="edgeStyle=orthogonalEdgeStyle;html=1;verticalAlign=bottom;endArrow=open;endSize=8;strokeColor=#ff0000;rounded=0;" edge="1" source="-5HwlrBw0nv6hRS2BXrq-1" parent="1" target="-5HwlrBw0nv6hRS2BXrq-4">
          <mxGeometry relative="1" as="geometry">
            <mxPoint x="315" y="240" as="targetPoint" />
          </mxGeometry>
        </mxCell>
        <mxCell id="-5HwlrBw0nv6hRS2BXrq-8" value="initializeGame()" style="edgeLabel;html=1;align=center;verticalAlign=middle;resizable=0;points=[];" vertex="1" connectable="0" parent="-5HwlrBw0nv6hRS2BXrq-2">
          <mxGeometry x="-0.3238" relative="1" as="geometry">
            <mxPoint as="offset" />
          </mxGeometry>
        </mxCell>
        <mxCell id="-5HwlrBw0nv6hRS2BXrq-3" value="" style="ellipse;html=1;shape=endState;fillColor=#000000;strokeColor=#ff0000;" vertex="1" parent="1">
          <mxGeometry x="300" y="430" width="30" height="30" as="geometry" />
        </mxCell>
        <mxCell id="-5HwlrBw0nv6hRS2BXrq-4" value="EMPTY" style="rounded=1;whiteSpace=wrap;html=1;arcSize=40;fontColor=#000000;fillColor=#ffffc0;strokeColor=#ff0000;" vertex="1" parent="1">
          <mxGeometry x="255" y="240" width="120" height="40" as="geometry" />
        </mxCell>
        <mxCell id="-5HwlrBw0nv6hRS2BXrq-5" value="" style="edgeStyle=orthogonalEdgeStyle;html=1;verticalAlign=bottom;endArrow=open;endSize=8;strokeColor=#ff0000;rounded=0;" edge="1" source="-5HwlrBw0nv6hRS2BXrq-4" parent="1" target="-5HwlrBw0nv6hRS2BXrq-6">
          <mxGeometry relative="1" as="geometry">
            <mxPoint x="315" y="320" as="targetPoint" />
          </mxGeometry>
        </mxCell>
        <mxCell id="-5HwlrBw0nv6hRS2BXrq-9" value="dropToken()" style="edgeLabel;html=1;align=center;verticalAlign=middle;resizable=0;points=[];" vertex="1" connectable="0" parent="-5HwlrBw0nv6hRS2BXrq-5">
          <mxGeometry x="-0.2" y="1" relative="1" as="geometry">
            <mxPoint as="offset" />
          </mxGeometry>
        </mxCell>
        <mxCell id="-5HwlrBw0nv6hRS2BXrq-6" value="FILLED" style="rounded=1;whiteSpace=wrap;html=1;arcSize=40;fontColor=#000000;fillColor=#ffffc0;strokeColor=#ff0000;" vertex="1" parent="1">
          <mxGeometry x="255" y="340" width="120" height="40" as="geometry" />
        </mxCell>
        <mxCell id="-5HwlrBw0nv6hRS2BXrq-7" value="" style="edgeStyle=orthogonalEdgeStyle;html=1;verticalAlign=bottom;endArrow=open;endSize=8;strokeColor=#ff0000;rounded=0;" edge="1" source="-5HwlrBw0nv6hRS2BXrq-6" parent="1" target="-5HwlrBw0nv6hRS2BXrq-3">
          <mxGeometry relative="1" as="geometry">
            <mxPoint x="315" y="400" as="targetPoint" />
          </mxGeometry>
        </mxCell>
      </root>
    </mxGraphModel>
  </diagram>
</mxfile>
